<?xml version="1.0" encoding="utf-8"?>
<!-- Generator: Adobe Illustrator 16.0.0, SVG Export Plug-In . SVG Version: 6.00 Build 0)  -->
<!DOCTYPE svg PUBLIC "-//W3C//DTD SVG 1.1//EN" "http://www.w3.org/Graphics/SVG/1.1/DTD/svg11.dtd">
<svg version="1.1" id="Icons" xmlns="http://www.w3.org/2000/svg" xmlns:xlink="http://www.w3.org/1999/xlink" x="0px" y="0px"
	 width="124.5px" height="131px" viewBox="0 0 124.5 131" enable-background="new 0 0 124.5 131" xml:space="preserve">
<path id="clip_2_" fill="#414B5B" d="M108.236,24.264c-11.631-11.638-30.498-11.638-42.129,0L17.81,71.988
	c-9.032,9.036-9.032,23.738,0,32.774c9.033,9.032,23.735,9.032,32.768,0l48.297-47.729c6.465-6.465,6.465-16.943,0-23.408
	c-6.465-6.462-16.946-6.462-23.405,0l-36.31,36.307c-1.293,1.296-1.293,3.388,0,4.684c1.293,1.293,3.388,1.293,4.681,0l36.31-36.31
	c3.873-3.87,10.17-3.87,14.043,0c3.873,3.873,3.873,10.173,0,14.046l-48.297,47.725c-6.465,6.465-16.939,6.465-23.405,0
	c-6.465-6.462-6.465-16.943,0-23.405l47.825-47.26c9.052-9.051,23.729-9.051,32.767,0c9.058,9.055,9.058,23.719,0.006,32.771
	L67.251,98.021c-1.3,1.296-1.3,3.388,0,4.681c1.293,1.296,3.388,1.296,4.681,0l36.304-36.307
	C119.874,54.761,119.874,35.898,108.236,24.264z"/>
</svg>
