<?xml version="1.0" encoding="utf-8"?>
<!-- Generator: Adobe Illustrator 16.0.0, SVG Export Plug-In . SVG Version: 6.00 Build 0)  -->
<!DOCTYPE svg PUBLIC "-//W3C//DTD SVG 1.1//EN" "http://www.w3.org/Graphics/SVG/1.1/DTD/svg11.dtd">
<svg version="1.1" id="Layer_1" xmlns="http://www.w3.org/2000/svg" xmlns:xlink="http://www.w3.org/1999/xlink" x="0px" y="0px"
	 width="217px" height="206px" viewBox="0 0 217 206" enable-background="new 0 0 217 206" xml:space="preserve">
<g>
	<path fill="#424B5C" d="M107.013,199.43c-51.811,0-93.967-41.355-93.967-92.188s42.156-92.188,93.967-92.188
		c51.812,0,93.968,41.355,93.968,92.188S158.824,199.43,107.013,199.43z M107.013,26.444c-45.532,0-82.577,36.245-82.577,80.798
		s37.045,80.798,82.577,80.798s82.577-36.245,82.577-80.798S152.545,26.444,107.013,26.444z"/>
</g>
<g>
	<path fill="#424C5C" stroke="#424B5C" stroke-miterlimit="10" d="M80.207,97.643c0,3.015-2.069,5.456-4.628,5.456
		c-2.558,0-4.627-2.441-4.627-5.456c0-3.02,2.069-5.461,4.627-5.461C78.138,92.182,80.207,94.623,80.207,97.643z"/>
</g>
<g>
	<path fill="#424C5C" stroke="#424B5C" stroke-miterlimit="10" d="M141.783,97.643c0,3.015-2.068,5.456-4.627,5.456
		s-4.627-2.441-4.627-5.456c0-3.02,2.068-5.461,4.627-5.461S141.783,94.623,141.783,97.643z"/>
</g>
<g>
	<path fill="#424C5C" stroke="#424B5C" stroke-miterlimit="10" d="M107.324,122.864c-7.102,0-15.088-2.297-18.253-8.614
		c-0.7-1.407-0.133-3.115,1.274-3.821c1.396-0.706,3.114-0.134,3.82,1.274c2.709,5.399,12.568,6.312,18.598,4.877
		c2.914-0.679,5.3-2.726,7.986-5.595c1.079-1.157,2.875-1.201,4.026-0.134c1.146,1.079,1.207,2.881,0.134,4.026
		c-2.942,3.137-6.285,6.185-10.851,7.253C112.068,122.592,109.749,122.864,107.324,122.864z"/>
</g>
</svg>
