<?xml version="1.0" encoding="utf-8"?>
<!-- Generator: Adobe Illustrator 16.0.0, SVG Export Plug-In . SVG Version: 6.00 Build 0)  -->
<!DOCTYPE svg PUBLIC "-//W3C//DTD SVG 1.1//EN" "http://www.w3.org/Graphics/SVG/1.1/DTD/svg11.dtd">
<svg version="1.1" id="Layer_1" xmlns="http://www.w3.org/2000/svg" xmlns:xlink="http://www.w3.org/1999/xlink" x="0px" y="0px"
	 width="110px" height="123.5px" viewBox="0 0 110 123.5" enable-background="new 0 0 110 123.5" xml:space="preserve">
<path fill="#1BE877" d="M95.449,57.772l-73.667-37c-0.335-0.169-0.742-0.135-1.045,0.091c-0.303,0.225-0.454,0.602-0.389,0.974
	l5.642,32.505c0.079,0.451,0.453,0.792,0.91,0.826c0,0,35.782,1.489,35.767,3.498s-35.724,3.419-35.724,3.419
	c-0.457,0.034-0.832,0.374-0.911,0.825l-5.684,32.584c-0.065,0.372,0.085,0.749,0.389,0.975c0.176,0.13,0.385,0.197,0.596,0.197
	c0.153,0,0.307-0.035,0.449-0.106l73.667-37C95.787,59.39,96,59.044,96,58.666S95.787,57.942,95.449,57.772z"/>
</svg>
